<?xml version="1.0" encoding="UTF-8"?>
<svg width="46px" height="30px" viewBox="0 0 46 30" version="1.1" xmlns="http://www.w3.org/2000/svg" xmlns:xlink="http://www.w3.org/1999/xlink">
    <title>编组 6</title>
    <g id="页面1" stroke="none" stroke-width="1" fill="none" fill-rule="evenodd" opacity="0.60030692">
        <g id="排课-周课表" transform="translate(-691.000000, -360.000000)" fill="#FF1D1D" fill-rule="nonzero">
            <g id="编组-5" transform="translate(247.000000, 260.000000)">
                <g id="私教备份-2" transform="translate(330.285714, 48.000000)">
                    <g id="编组-6" transform="translate(136.415309, 66.827790) rotate(-20.000000) translate(-136.415309, -66.827790) translate(116.415309, 58.327790)">
                        <path d="M40,0 L40,17 L0,17 L0,0 L40,0 Z M39,1 L1,1 L1,16 L39,16 L39,1 Z M20.468,5.488 L20.468,6.688 L24.008,6.688 L24.008,12.472 L23.168,12.472 L23.168,11.8 L20.468,11.8 L20.468,14.236 L19.604,14.236 L19.604,11.8 L16.94,11.8 L16.94,12.508 L16.1,12.508 L16.1,6.688 L19.604,6.688 L19.604,5.488 L20.468,5.488 Z M29.132,3.208 L29.132,5.548 L30.548,5.548 L30.548,6.376 L29.132,6.376 L29.132,7.156 C29.708,7.816 30.284,8.56 30.884,9.4 L30.884,9.4 L30.404,10.132 C29.912,9.292 29.492,8.608 29.132,8.092 L29.132,8.092 L29.132,14.2 L28.304,14.2 L28.304,8.188 C27.92,9.412 27.416,10.516 26.804,11.5 L26.804,11.5 L26.444,10.624 C27.296,9.376 27.908,7.96 28.268,6.376 L28.268,6.376 L26.648,6.376 L26.648,5.548 L28.304,5.548 L28.304,3.208 L29.132,3.208 Z M8.444,3.244 L8.444,4.888 L12.56,4.888 L12.56,5.728 L8.444,5.728 L8.444,7.852 L13.196,7.852 L13.196,8.692 L9.236,8.692 C10.04,10.204 11.432,11.548 13.4,12.736 L13.4,12.736 L12.8,13.504 C10.76,12.064 9.332,10.468 8.54,8.692 L8.54,8.692 L8.444,8.692 L8.444,14.164 L7.556,14.164 L7.556,8.692 L7.448,8.692 C6.584,10.66 5.132,12.268 3.092,13.54 L3.092,13.54 L2.6,12.736 C4.52,11.68 5.912,10.336 6.776,8.692 L6.776,8.692 L2.804,8.692 L2.804,7.852 L7.556,7.852 L7.556,5.728 L3.524,5.728 L3.524,4.888 L7.556,4.888 L7.556,3.244 L8.444,3.244 Z M36.536,8.044 L37.268,8.428 C36.692,9.508 36.008,10.444 35.228,11.236 C36.092,12.004 36.836,12.76 37.436,13.516 L37.436,13.516 L36.812,14.14 C36.284,13.396 35.576,12.604 34.688,11.764 C33.536,12.796 32.204,13.588 30.668,14.116 L30.668,14.116 L30.2,13.372 C33.02,12.448 35.132,10.672 36.536,8.044 L36.536,8.044 Z M34.16,3.184 C34.34,3.568 34.52,4.012 34.688,4.516 L34.688,4.516 L37.352,4.516 L37.352,5.296 L34.064,5.296 C33.404,6.46 32.828,7.288 32.324,7.78 C33.092,7.732 33.848,7.684 34.592,7.624 C34.904,7.192 35.18,6.748 35.42,6.268 L35.42,6.268 L36.116,6.64 C34.916,9.016 33.164,10.648 30.836,11.512 L30.836,11.512 L30.368,10.792 C31.82,10.276 33.032,9.472 34.016,8.368 C33.176,8.416 32.276,8.464 31.328,8.5 L31.328,8.5 L31.148,7.792 C31.22,7.768 31.268,7.744 31.316,7.72 C31.796,7.408 32.408,6.604 33.176,5.296 L33.176,5.296 L30.848,5.296 L30.848,4.516 L33.848,4.516 C33.68,4.084 33.488,3.688 33.272,3.328 L33.272,3.328 Z M19.604,9.628 L16.94,9.628 L16.94,11.008 L19.604,11.008 L19.604,9.628 Z M23.168,9.628 L20.468,9.628 L20.468,11.008 L23.168,11.008 L23.168,9.628 Z M23.168,7.48 L20.468,7.48 L20.468,8.86 L23.168,8.86 L23.168,7.48 Z M19.604,7.48 L16.94,7.48 L16.94,8.86 L19.604,8.86 L19.604,7.48 Z M20.084,3.088 C20.204,3.388 20.312,3.724 20.432,4.108 L20.432,4.108 L24.98,4.108 L24.98,6.208 L24.14,6.208 L24.14,4.888 L15.812,4.888 L15.812,6.268 L14.972,6.268 L14.972,4.108 L19.544,4.108 C19.424,3.796 19.304,3.508 19.172,3.244 L19.172,3.244 Z" id="形状结合"></path>
                    </g>
                </g>
            </g>
        </g>
    </g>
</svg>